<?xml version="1.0" ?>
<svg id="snail" style="enable-background:new 0 0 30 30;" version="1.1" viewBox="0 0 30 30" xml:space="preserve"
    xmlns="http://www.w3.org/2000/svg"
    xmlns:xlink="http://www.w3.org/1999/xlink">
    <style type="text/css">
      .st0{fill:#F0DF9E;}
      .st1{fill:#A3875E;}
    </style>
    <g>
        <path class="st0" d="M12.65,17.383l3.302-1.563l4.438-2.938l4.219-2.906c0,0,3.063-2.426,3.438,2.615c0,0,1.125,2.416-3.875,4.26   c0,0-1.781,2.563-2.531,5.125c0,0-2.5,6.188-10.219,2.688c0,0-8.281-0.719-9.063,0.188s4.25-3.25,4.25-3.25L12.65,17.383z"/>
        <path class="st1" d="M16.9,15.216l-4.958,2.417c0,0-3.625,9.5-9.125,1.333C2.9,19.133-1.266,6.799,8.692,5.174   C8.692,5.174,15.83,4.509,16.9,15.216z"/>
        <path d="M28.436,12.389c-0.254-1.342-0.673-2.3-1.248-2.862l0.109-4.821c0.092-0.098,0.151-0.227,0.151-0.371   c0-0.301-0.245-0.546-0.546-0.546s-0.546,0.245-0.546,0.546c0,0.139,0.056,0.263,0.142,0.359l-0.099,4.349   c-0.254-0.083-0.497-0.107-0.709-0.09l0.097-4.259c0.072-0.092,0.122-0.203,0.122-0.328c0-0.301-0.245-0.546-0.546-0.546   s-0.546,0.245-0.546,0.546c0,0.154,0.066,0.293,0.17,0.392l-0.099,4.379c0,0.019,0.007,0.036,0.01,0.054   c-0.003,0.002-0.011,0.006-0.012,0.007c-1.152,0.828-5.998,4.25-7.642,5.411c-0.282-2.21-1.646-9.059-7.752-9.704   C8.97,4.86,6.287,4.756,4.146,6.774c-1.824,1.718-2.71,4.458-2.633,8.155c0.011,0.224,0.309,5.507,3.582,7.205   c0.006,0.004,0.027,0.015,0.055,0.03c-1.197,0.592-2.645,1.966-2.996,2.309c-0.129,0.126-0.158,0.323-0.07,0.48   s0.27,0.242,0.446,0.193c5.559-1.381,11.967,0.782,12.05,0.81c0.606,0.177,1.174,0.255,1.704,0.255   c4.334-0.001,6.167-5.245,6.196-5.34c0.844-3.684,2.936-4.336,2.975-4.351c1.094-0.166,1.911-0.625,2.431-1.364   C28.733,13.949,28.449,12.449,28.436,12.389z M2.312,14.901c-0.072-3.45,0.729-5.989,2.382-7.545   c1.591-1.499,3.572-1.667,4.384-1.667c0.176,0,0.297,0.008,0.348,0.012c5.902,0.624,6.92,7.884,7.067,9.379l-3.509,1.606   c-0.003,0.001-0.006,0.002-0.009,0.004l-0.471,0.215c0.104-0.448,0.232-1.268,0.186-2.339c0.001-0.018,0.003-0.035,0.004-0.053   c0.001-0.021-0.007-0.038-0.01-0.058c-0.047-0.869-0.206-1.893-0.6-3.041l0,0c0,0,0-0.001,0-0.001   c-0.195-0.559-1.273-3.373-3.375-3.873c-1.169-0.276-2.406,0.203-3.678,1.43c-1.784,1.723-2.089,5.071-1.47,7.488   c0.437,1.707,1.296,2.852,2.356,3.14c0.159,0.044,0.342,0.072,0.546,0.072c0.621,0,1.438-0.268,2.387-1.221   c1.459-1.466,1.988-5.263,0.509-6.993c-0.696-0.814-1.359-0.845-1.796-0.726c-1.041,0.283-1.738,1.662-1.945,2.823   c-0.177,0.992,0.002,1.761,0.493,2.11c0.186,0.133,0.604,0.302,0.996,0.098c0.347-0.181,0.521-0.569,0.515-1.154   C7.622,14.385,7.42,14.19,7.22,14.21c-0.221,0.002-0.398,0.183-0.396,0.404c0.003,0.359-0.084,0.436-0.085,0.437   c-0.026,0.012-0.121-0.011-0.162-0.04c-0.173-0.124-0.3-0.588-0.17-1.318c0.192-1.073,0.792-2.036,1.368-2.192   c0.312-0.084,0.637,0.076,0.978,0.474c1.184,1.385,0.731,4.704-0.468,5.909c-0.545,0.548-1.363,1.153-2.155,0.941   c-0.763-0.208-1.433-1.168-1.792-2.567c-0.549-2.139-0.297-5.219,1.25-6.714C6.65,8.519,7.637,8.106,8.525,8.317   c1.731,0.412,2.699,3.058,2.804,3.358l0,0c0.375,1.095,0.522,2.063,0.561,2.876c-0.117,2.929-0.882,5.031-2.278,6.241   c-0.859,0.745-1.801,1-2.491,1.081c-0.925-0.053-1.622-0.429-1.643-0.441C2.599,19.938,2.314,14.939,2.312,14.901z M27.227,14.701   c-0.39,0.551-1.025,0.897-1.938,1.039c-0.107,0.029-2.631,0.773-3.577,4.915c-0.082,0.242-2.066,5.938-6.89,4.54   c-0.249-0.086-5.673-1.918-11.042-1.11c0.963-0.801,1.921-1.42,2.321-1.396c0.192,0.021,0.565,0.042,1.036-0.006   c0.06,0.003,0.118,0.009,0.18,0.009c0.498,0,1.045-0.085,1.603-0.323c1.473-0.629,2.583-2.125,3.31-4.455l4.853-2.221   c0.024-0.011,0.035-0.035,0.056-0.049l0.009,0.012c0,0,6.811-4.806,8.172-5.786c0.019-0.011,0.461-0.255,0.948-0.027   c0.437,0.203,1.031,0.835,1.385,2.699C27.653,12.552,27.879,13.778,27.227,14.701z"/>
        <path d="M25.23,12.214c0-0.25,0.204-0.454,0.455-0.454s0.455,0.204,0.455,0.454C26.14,12.717,25.23,12.717,25.23,12.214z"/>
    </g>
</svg>
